<svg width="165" height="126" viewBox="0 0 165 126" fill="none" xmlns="http://www.w3.org/2000/svg">
<path fill-rule="evenodd" clip-rule="evenodd" d="M99.8066 79.3883H99.8036C99.8176 79.1263 99.8246 78.8633 99.8206 78.5983C99.6176 66.5413 80.6896 57.0833 57.5436 57.4733C34.3976 57.8623 15.7986 67.9533 16.0026 80.0123C16.0056 80.1853 16.0126 80.3583 16.0226 80.5323L16.0236 80.5383C16.0516 80.9853 16.1076 81.4283 16.1866 81.8683L17.0796 89.1803C18.6996 101.057 36.6546 110.165 58.4006 109.799C80.2046 109.431 97.8786 99.6723 99.0126 87.7043L99.7126 80.3673C99.7536 80.0693 99.7816 79.7693 99.7996 79.4673L99.8066 79.3873V79.3883Z" fill="white"/>
<path fill-rule="evenodd" clip-rule="evenodd" d="M99.8206 78.5993C100.024 90.6573 81.4246 100.748 58.2786 101.138C35.1336 101.528 16.2046 92.0693 16.0016 80.0113C15.7986 67.9533 34.3976 57.8623 57.5436 57.4723C80.6886 57.0823 99.6166 66.5423 99.8206 78.5993V78.5993Z" stroke="#FF00AF"/>
<path fill-rule="evenodd" clip-rule="evenodd" d="M91.5846 77.5783C91.7446 87.1033 76.8376 95.0783 58.2866 95.3913C39.7366 95.7033 24.5666 88.2363 24.4066 78.7113C24.2466 69.1863 39.1546 61.2113 57.7056 60.8983C76.2556 60.5853 91.4246 68.0533 91.5856 77.5783H91.5846Z" stroke="#FF00AF"/>
<path d="M24.6826 80.7793C25.0046 71.4623 39.6676 63.7423 57.8406 63.4363C75.5876 63.1363 90.2257 70.0163 91.4967 79.0003" stroke="#FF00AF"/>
<path d="M99.8066 79.3883L99.0126 87.7043C97.8786 99.6713 80.2046 109.431 58.4006 109.799C36.6546 110.165 18.6996 101.057 17.0786 89.1803L16.0226 80.5313" stroke="#FF00AF"/>
<path d="M52.2307 63.7723L55.2257 66.3963C55.2257 66.3963 61.8537 64.7283 65.4157 65.9453C68.9797 67.1613 70.8137 69.1023 68.5217 71.1483C68.5217 71.1483 74.5017 70.6323 77.2557 72.3113C80.1827 74.0953 80.3737 76.4333 78.8567 77.9353C77.3397 79.4373 72.3767 81.4253 72.3767 81.4253L76.6327 85.1533L72.4007 86.4793L68.2427 82.7093L65.0317 83.7233L69.0677 87.5233L64.7407 88.8793L60.7807 85.0643L52.5337 87.6663L50.4607 84.5873L53.9607 83.5303C54.0863 83.4903 54.1993 83.4183 54.2888 83.3215C54.3783 83.2246 54.4411 83.1063 54.4712 82.9779C54.5012 82.8495 54.4974 82.7155 54.4601 82.589C54.4229 82.4626 54.3535 82.3479 54.2587 82.2563L45.3677 73.6763C44.9651 73.2871 44.4668 73.0112 43.9234 72.8763C43.3799 72.7415 42.8105 72.7525 42.2727 72.9083L39.2707 73.8513L37.1107 71.9703L44.7547 69.6173L41.6797 66.6533L45.7317 65.5463L48.7497 68.3883L51.5097 67.5393L48.4827 64.7963L52.2307 63.7713" stroke="#FF00AF" stroke-linejoin="round"/>
<path fill-rule="evenodd" clip-rule="evenodd" d="M54.8847 74.1663L50.8997 70.4133L56.3517 68.8373C56.3517 68.8373 59.2037 68.1023 61.3947 68.9373C63.5377 69.7533 62.4367 71.7473 60.3197 72.3823L54.8847 74.1663Z" stroke="#FF00AF"/>
<path fill-rule="evenodd" clip-rule="evenodd" d="M53.3756 72.7453L56.3516 71.8853C56.3516 71.8853 59.2036 71.1503 61.3946 71.9853L53.3756 72.7453ZM57.9146 77.0203L63.2826 75.5043C66.2996 74.7643 69.6856 74.6573 70.9026 75.7163C72.1196 76.7743 70.5866 78.2123 69.2126 78.6523L62.0726 80.9363L57.9146 77.0203Z" stroke="#FF00AF"/>
<path d="M64.7406 88.8793L64.8277 92.2863M60.4457 79.4043L63.6296 78.5043C65.8916 77.9493 68.3617 77.7513 69.9697 78.1333L60.4457 79.4043ZM37.1096 71.9703V74.7803L39.2696 76.9403L42.3576 75.9753C42.8993 75.8061 43.4765 75.7855 44.0289 75.9157C44.5813 76.0459 45.0885 76.322 45.4976 76.7153L52.9346 83.8583L37.1096 71.9703ZM39.2706 73.8513V76.9413V73.8513ZM50.4606 84.5873L50.2846 87.5863L52.3316 91.0463L60.8417 88.1863L64.8277 92.2863L69.1566 90.7263L69.0666 87.5243L50.4606 84.5873ZM52.5336 87.6663L52.3316 91.0463L52.5336 87.6663ZM60.7816 85.0643L60.8417 88.1853L60.7816 85.0643Z" stroke="#FF00AF"/>
<path d="M79.6977 75.1313C80.0817 77.0893 80.3397 79.7733 78.7687 81.2013C77.4947 82.3593 74.7877 83.5363 74.7877 83.5363M67.4547 86.0053L68.1877 85.7953L72.3307 89.7023L76.5077 88.2983L76.6316 85.1533L67.4547 86.0053ZM72.4007 86.4793L72.3307 89.7023L72.4007 86.4793ZM68.2426 82.7103L68.1877 85.7953L68.2426 82.7103Z" stroke="#FF00AF" stroke-linejoin="round"/>
<path d="M48.4817 64.7963V67.5893L49.1477 68.2663" stroke="#FF00AF"/>
<path d="M41.6797 66.6533L41.6937 69.7353L42.3357 70.3623" stroke="#FF00AF" stroke-linejoin="round"/>
<path fill-rule="evenodd" clip-rule="evenodd" d="M96.8656 79.4123L94.1227 80.9993C90.1907 79.6893 86.0296 77.7713 82.6826 75.8803C79.2396 73.8933 76.1506 71.6383 73.4846 69.2043L74.0126 66.7063C72.2982 65.1806 70.7138 63.5148 69.2756 61.7263L66.7706 61.3493C63.2496 55.8523 61.7766 49.9773 62.9446 44.4503L64.1846 35.0183L64.2676 35.0233C64.5106 34.2123 64.7976 33.3233 65.1576 32.5463C65.4626 31.8933 65.8026 31.2633 66.1796 30.6593L66.6566 28.1993C67.8886 26.2013 69.5136 24.4263 71.4666 22.8893L71.7586 22.6633C73.8286 21.0873 76.2506 19.7733 78.9506 18.7383L82.2266 19.7593C83.6119 19.3667 85.0164 19.0456 86.4346 18.7973L86.6986 16.6723C94.9256 15.3013 104.617 15.9883 114.424 19.0913C137.26 26.3153 152.078 43.8983 147.522 58.3633C147.349 58.9107 147.15 59.4493 146.926 59.9773L142.171 70.3013C137.226 80.6963 122.579 85.8883 105.964 83.7313L103.977 81.0473C101.577 80.6381 99.2036 80.0922 96.8666 79.4123" fill="white"/>
<path d="M107.384 22.3673C109.26 22.7436 111.115 23.2223 112.94 23.8013C130.541 29.3693 141.971 42.8923 138.471 54.0063C136.939 58.8693 132.804 62.4643 127.161 64.5053M82.2267 19.7593C83.6184 19.3675 85.0292 19.0471 86.4537 18.7993L82.2267 19.7593Z" stroke="#FF00AF"/>
<path fill-rule="evenodd" clip-rule="evenodd" d="M108.986 25.8133C110.233 26.1093 111.491 26.4563 112.75 26.8553C129.631 32.1953 140.703 44.8253 137.478 55.0653C136.086 59.4853 132.257 62.7353 126.998 64.5753L108.986 25.8133ZM108.68 49.5333L117.103 69.6243L108.68 49.5333ZM95.8836 19.0133L103.089 36.2003L95.8836 19.0133ZM107.384 22.3673L126.997 64.5743L107.384 22.3673ZM64.2676 35.0233C64.5106 34.2123 64.7976 33.3233 65.1576 32.5463C65.4626 31.8933 65.8026 31.2633 66.1786 30.6593L64.2676 35.0233ZM96.2566 16.0133L95.0666 25.5843L99.2576 34.1343L105.443 37.4683L96.2566 16.0133Z" stroke="#FF00AF"/>
<path fill-rule="evenodd" clip-rule="evenodd" d="M109.475 46.8853L106.174 50.6733L109.475 60.8363L121.261 74.4143L109.475 46.8853Z" stroke="#FF00AF" stroke-linejoin="bevel"/>
<path d="M109.475 46.8853L108.68 49.5323L106.577 51.9163M86.2357 29.5973L75.0757 26.2123L87.3957 31.9593L86.2357 29.5973ZM86.2357 29.5973L86.9087 27.1033M68.5657 51.1833C66.8057 48.5393 65.5177 45.8133 64.7657 43.0833L84.1397 46.8853L97.6097 46.0583L100.908 42.4043L94.4677 38.7103L81.0717 38.3353L64.6237 42.5313C63.9967 40.0053 63.8317 37.4813 64.1837 35.0183L71.7737 33.3273L66.6567 28.1993M68.5657 51.1833L68.1007 53.8183C69.9287 56.5193 72.3217 59.2893 75.0647 61.7253L75.6077 59.1543L77.9527 52.9103L68.5657 51.1833Z" stroke="#FF00AF"/>
<path d="M109.66 74.0733C127.932 76.4023 143.756 70.3193 147.522 58.3633C152.079 43.8983 137.26 26.3153 114.424 19.0913C104.617 15.9883 94.9257 15.3013 86.6987 16.6723L86.1607 21.0083L78.9497 18.7383C76.2507 19.7733 73.8287 21.0873 71.7597 22.6633L86.9097 27.1033L89.1547 31.9593H81.3707L71.4667 22.8893C69.5137 24.4263 67.8887 26.2013 66.6567 28.1993L66.1797 30.6593L69.5147 33.8303" stroke="#FF00AF"/>
<path d="M97.1876 71.2343C93.2163 69.9363 89.376 68.2673 85.7176 66.2493L99.0146 59.6163L97.1996 53.4323L88.9856 53.9723L85.1466 65.9293C81.5846 63.9073 78.3806 61.6193 75.6066 59.1553M69.1446 43.9423L80.6476 40.9103L93.8196 41.1603L99.3156 44.1673L69.1446 43.9423ZM93.8186 41.1603L94.4676 38.7103L93.8186 41.1603ZM81.0716 38.3353L80.6476 40.9103L81.0716 38.3353ZM68.1006 53.8183L77.0226 55.3893L68.1006 53.8183Z" stroke="#FF00AF"/>
<path fill-rule="evenodd" clip-rule="evenodd" d="M88.1887 56.4543L96.3757 55.8673L97.7707 60.2373L88.1887 56.4543ZM97.1997 53.4323L96.3767 55.8673L97.1997 53.4323ZM108.638 76.5613L109.66 74.0733L103.973 67.6113L97.1877 71.2343L96.4387 73.8843C96.6827 73.9653 96.9287 74.0443 97.1747 74.1223C101.135 75.3753 104.805 76.0733 108.638 76.5623V76.5613Z" stroke="#FF00AF"/>
<path d="M146.926 59.9773L142.169 70.3023C137.225 80.6963 122.578 85.8893 105.963 83.7323L103.977 81.0473M96.4387 73.8853L103.239 69.9503L108.638 76.5623L96.4387 73.8853ZM103.239 69.9503L103.973 67.6123L103.239 69.9503Z" stroke="#FF00AF"/>
<path d="M94.1227 80.9993L94.8536 78.7813C95.1666 78.8853 95.4806 78.9863 95.7966 79.0863C99.4686 80.2483 103.325 81.0243 106.892 81.4863L105.963 83.7323" stroke="#FF00AF"/>
<path d="M66.7697 61.3503L67.1717 58.8783C69.1187 61.7611 71.4166 64.3907 74.0127 66.7063L73.4857 69.2043C76.1507 71.6383 79.2407 73.8933 82.6817 75.8813C86.0297 77.7713 90.1917 79.6893 94.1227 80.9993L96.8657 79.4123" stroke="#FF00AF"/>
<path d="M64.1846 35.0183L62.9447 44.4493C61.7767 49.9773 63.2506 55.8523 66.7706 61.3493L69.2766 61.7253" stroke="#FF00AF"/>
</svg>
