<svg width="151" height="126" viewBox="0 0 151 126" fill="none" xmlns="http://www.w3.org/2000/svg">
<path fill-rule="evenodd" clip-rule="evenodd" d="M63.2266 103.164L59.4516 105.345C54.0406 103.545 48.3136 100.908 43.7066 98.3093C38.9696 95.5783 34.7166 92.4793 31.0486 89.1323L31.7746 85.6993C29.4155 83.6021 27.235 81.3122 25.2556 78.8533L21.8056 78.3373C16.9626 70.7793 14.9356 62.7033 16.5416 55.1063L18.2496 42.1413L18.3636 42.1483C18.6986 41.0343 19.0926 39.8123 19.5896 38.7443C20.005 37.8517 20.4742 36.9851 20.9946 36.1493L21.6516 32.7693C23.3466 30.0233 25.5826 27.5823 28.2716 25.4713L28.6736 25.1593C31.5216 22.9933 34.8556 21.1853 38.5716 19.7643L43.0806 21.1673C44.9874 20.6278 46.9206 20.1865 48.8726 19.8453L49.2356 16.9243C60.5576 15.0393 73.8956 15.9843 87.3936 20.2483C118.823 30.1783 139.217 54.3483 132.946 74.2303C132.709 74.9829 132.435 75.7235 132.126 76.4493L125.58 90.6413C118.775 104.929 98.6156 112.066 75.7476 109.101L73.0136 105.411C69.7116 104.849 66.4442 104.099 63.2276 103.164" fill="white"/>
<path d="M77.7036 24.7523C80.2861 25.2702 82.8385 25.9278 85.3496 26.7223C109.575 34.3773 125.307 52.9653 120.489 68.2423C118.379 74.9263 112.689 79.8683 104.923 82.6733M43.0796 21.1673C44.9949 20.6289 46.9364 20.1887 48.8966 19.8483L43.0796 21.1673Z" stroke="#FF00AF"/>
<path fill-rule="evenodd" clip-rule="evenodd" d="M79.9076 29.4893C81.6514 29.9033 83.3796 30.3806 85.0886 30.9203C108.322 38.2623 123.56 55.6233 119.121 69.6963C117.205 75.7723 111.936 80.2413 104.698 82.7693L79.9076 29.4893ZM79.4866 62.0933L91.0796 89.7093L79.4866 62.0933ZM61.8756 20.1423L71.7926 43.7663L61.8756 20.1423ZM77.7036 24.7533L104.697 82.7673L77.7036 24.7533ZM18.3626 42.1483C18.6976 41.0343 19.0916 39.8123 19.5886 38.7443C20.0041 37.8517 20.4733 36.9851 20.9936 36.1493L18.3626 42.1483ZM62.3886 16.0183L60.7516 29.1743L66.5196 40.9273L75.0316 45.5093L62.3886 16.0183Z" stroke="#FF00AF"/>
<path fill-rule="evenodd" clip-rule="evenodd" d="M80.5806 58.4543L76.0376 63.6603L80.5806 77.6303L96.8026 96.2943L80.5806 58.4543Z" stroke="#FF00AF" stroke-linejoin="bevel"/>
<path d="M80.5806 58.4543L79.4866 62.0933L76.5926 65.3683M48.5966 34.6903L33.2366 30.0373L50.1936 37.9373L48.5966 34.6903ZM48.5966 34.6903L49.5236 31.2623M24.2786 64.3613C21.8556 60.7283 20.0826 56.9803 19.0486 53.2263L45.7126 58.4543L64.2506 57.3163L68.7906 52.2943L59.9276 47.2163L41.4896 46.7013L18.8526 52.4683C17.9906 48.9973 17.7626 45.5263 18.2486 42.1413L28.6926 39.8173L21.6506 32.7693M24.2786 64.3613L23.6376 67.9833C26.1546 71.6963 29.4476 75.5033 33.2226 78.8533L33.9706 75.3183L37.1986 66.7363L24.2786 64.3613Z" stroke="#FF00AF"/>
<path d="M80.8346 95.8253C105.983 99.0263 127.762 90.6643 132.945 74.2303C139.216 54.3483 118.822 30.1783 87.3926 20.2483C73.8946 15.9843 60.5566 15.0393 49.2346 16.9243L48.4946 22.8853L38.5706 19.7643C34.8546 21.1853 31.5206 22.9933 28.6726 25.1593L49.5246 31.2623L52.6146 37.9373H41.9016L28.2706 25.4713C25.5826 27.5823 23.3456 30.0233 21.6506 32.7693L20.9936 36.1493L25.5836 40.5093" stroke="#FF00AF"/>
<path d="M63.6706 91.9233C58.0076 90.0653 52.7156 87.7443 47.8846 85.0713L66.1846 75.9533L63.6866 67.4533L52.3826 68.1963L47.0986 84.6313C42.1966 81.8513 37.7866 78.7073 33.9686 75.3193M25.0756 54.4083L40.9056 50.2403L59.0346 50.5843L66.5996 54.7173L25.0756 54.4083ZM59.0346 50.5843L59.9266 47.2173L59.0346 50.5843ZM41.4896 46.7013L40.9066 50.2413L41.4896 46.7013ZM23.6376 67.9833L35.9166 70.1433L23.6376 67.9833Z" stroke="#FF00AF"/>
<path fill-rule="evenodd" clip-rule="evenodd" d="M51.2856 71.6073L62.5536 70.7993L64.4726 76.8063L51.2856 71.6073ZM63.6866 67.4533L62.5536 70.7993L63.6866 67.4533ZM79.4296 99.2453L80.8346 95.8253L73.0086 86.9433L63.6706 91.9233L62.6406 95.5663C62.9756 95.6763 63.3126 95.7863 63.6526 95.8933C69.1026 97.6143 74.1526 98.5743 79.4296 99.2453Z" stroke="#FF00AF"/>
<path d="M132.126 76.4493L125.579 90.6413C118.775 104.928 98.6156 112.066 75.7486 109.101L73.0146 105.411M62.6396 95.5663L71.9986 90.1573L79.4286 99.2463L62.6396 95.5663ZM71.9996 90.1583L73.0096 86.9443L71.9996 90.1583Z" stroke="#FF00AF"/>
<path d="M59.4526 105.345L60.4586 102.295C60.8886 102.439 61.3216 102.579 61.7566 102.715C66.8096 104.313 72.1166 105.38 77.0256 106.015L75.7476 109.102" stroke="#FF00AF"/>
<path d="M21.8056 78.3373L22.3586 74.9393C25.039 78.9026 28.202 82.517 31.7746 85.6993L31.0486 89.1323C34.7166 92.4783 38.9686 95.5773 43.7056 98.3103C48.3136 100.908 54.0406 103.545 59.4526 105.345L63.2276 103.165" stroke="#FF00AF"/>
<path d="M18.2476 42.1413L16.5426 55.1063C14.9346 62.7033 16.9626 70.7793 21.8056 78.3363L25.2556 78.8533" stroke="#FF00AF"/>
</svg>
