<svg width="188" height="104" viewBox="0 0 188 104" fill="none" xmlns="http://www.w3.org/2000/svg">
<path fill-rule="evenodd" clip-rule="evenodd" d="M51.98 16C71.862 16 87.98 32.118 87.98 52C87.98 71.683 72.183 87.677 52.576 87.995L51.98 88V57.658L47.41 62.228L46.826 73.634L51.592 87.98C48.834 87.9467 46.089 87.5944 43.412 86.93L42.758 86.762L40.452 79.828L33.916 83.106C31.5345 81.7229 29.3177 80.074 27.308 78.191L26.812 77.716L38.918 71.648L39.272 64.708L32.332 65.064L26.264 77.168C24.3417 75.1976 22.6517 73.0134 21.227 70.658L20.874 70.064L24.154 63.526L17.216 61.222C16.5072 58.5666 16.1042 55.8389 16.015 53.092L16 52.387L30.348 57.153L41.754 56.571L46.324 52L41.754 47.428L30.348 46.846L16 51.612C16.03 48.792 16.404 46.059 17.05 43.432L17.216 42.778L24.154 40.474L20.874 33.936C22.2559 31.5534 23.9048 29.3361 25.789 27.327L26.264 26.832L32.332 38.936L39.272 39.292L38.918 32.35L26.812 26.284C28.7824 24.3613 30.967 22.6713 33.323 21.247L33.916 20.894L40.452 24.172L42.758 17.238C45.4138 16.5274 48.1423 16.1238 50.89 16.035L51.593 16.02L46.827 30.366L47.411 41.772L51.981 46.342V16H51.98ZM172 22V82H164V22H172ZM156 22V30H138V48H152V56H138V82H130V22H156ZM122 22V30H104V48H118V56H104V74H122V82H96V22H122ZM59.98 25.164V78.836C71.534 75.386 79.98 64.66 79.98 52C79.98 39.48 71.719 28.852 60.36 25.28L59.98 25.164V25.164Z" fill="#FF00AF"/>
</svg>
