<svg width="104" height="104" viewBox="0 0 104 104" fill="none" xmlns="http://www.w3.org/2000/svg">
<path fill-rule="evenodd" clip-rule="evenodd" d="M51.99 16C71.878 16 88 32.118 88 52C88 71.683 72.198 87.677 52.585 87.995L51.99 88V57.658L47.419 62.228L46.835 73.634L51.602 87.98C48.8433 87.9467 46.0977 87.5943 43.42 86.93L42.765 86.762L40.459 79.828L33.921 83.106C31.5389 81.7229 29.3214 80.074 27.311 78.191L26.815 77.716L38.925 71.648L39.278 64.708L32.337 65.064L26.267 77.168C24.344 75.1977 22.6533 73.0135 21.228 70.658L20.875 70.064L24.156 63.526L17.216 61.222C16.5071 58.5666 16.1041 55.8389 16.015 53.092L16 52.387L30.352 57.153L41.762 56.571L46.331 52L41.761 47.428L30.351 46.846L16 51.612C16.03 48.792 16.403 46.059 17.05 43.432L17.216 42.778L24.156 40.474L20.876 33.936C22.2582 31.5533 23.9075 29.336 25.792 27.327L26.267 26.832L32.337 38.936L39.278 39.292L38.924 32.35L26.815 26.284C28.7861 24.3613 30.9714 22.6712 33.328 21.247L33.921 20.894L40.459 24.172L42.765 17.238C45.4211 16.5275 48.1499 16.1239 50.898 16.035L51.602 16.02L46.835 30.366L47.419 41.772L51.99 46.342V16ZM59.992 25.164V78.836C71.55 75.386 79.998 64.66 79.998 52C79.998 39.48 71.734 28.852 60.372 25.28L59.992 25.164V25.164Z" fill="#FF00AF"/>
</svg>
